# This file uses centimeters as units for non-parametric coordinates.

mtllib obj_09.mtl
g default
v -1.641159 0.057453 10.792204
v -1.502457 0.000000 10.792204
v -1.502457 0.057453 10.930912
v -1.502457 0.196159 10.988365
v -1.641159 0.196159 10.930912
v -1.698616 0.196159 10.792204
v 1.641167 0.057453 10.792204
v 1.698616 0.196159 10.792204
v 1.641167 0.196159 10.930912
v 1.502457 0.196159 10.988365
v 1.502457 0.057453 10.930912
v 1.502457 0.000000 10.792204
v -1.641159 11.918844 10.792204
v -1.698616 11.780138 10.792204
v -1.641159 11.780138 10.930912
v -1.502457 11.780138 10.988365
v -1.502457 11.918844 10.930912
v -1.502457 11.976297 10.792204
v 1.641167 11.918844 10.792204
v 1.502457 11.976297 10.792204
v 1.502457 11.918844 10.930912
v 1.502457 11.780138 10.988365
v 1.641167 11.780138 10.930912
v 1.698616 11.780138 10.792204
v -1.641159 11.780138 -10.930908
v -1.698616 11.780138 -10.792198
v -1.641159 11.918844 -10.792198
v -1.502457 11.976297 -10.792198
v -1.502457 11.918844 -10.930908
v -1.502457 11.780138 -10.988361
v 1.641167 11.780138 -10.930908
v 1.502457 11.780138 -10.988361
v 1.502457 11.918844 -10.930908
v 1.502457 11.976297 -10.792198
v 1.641167 11.918844 -10.792198
v 1.698616 11.780138 -10.792198
v -1.641159 0.057453 -10.792198
v -1.698616 0.196159 -10.792198
v -1.641159 0.196159 -10.930908
v -1.502457 0.196159 -10.988361
v -1.502457 0.057453 -10.930908
v -1.502457 0.000000 -10.792198
v 1.641167 0.057453 -10.792198
v 1.502457 0.000000 -10.792198
v 1.502457 0.057453 -10.930908
v 1.502457 0.196159 -10.988361
v 1.641167 0.196159 -10.930908
v 1.698616 0.196159 -10.792198
v -1.615669 0.082945 10.905418
v 1.615669 0.082945 10.905418
v -1.615669 11.893354 10.905418
v 1.615669 11.893354 10.905418
v -1.615669 11.893354 -10.905415
v 1.615669 11.893354 -10.905415
v -1.615669 0.082945 -10.905415
v 1.615669 0.082945 -10.905415
v -1.698616 11.780138 0.000004
v -1.641159 11.918844 0.000004
v -1.502457 11.976297 0.000004
v 1.502457 11.976297 0.000004
v 1.641167 11.918844 0.000004
v 1.698616 11.780138 0.000004
v 1.698616 0.196159 0.000004
v 1.641167 0.057453 0.000004
v 1.502457 0.000000 0.000004
v -1.502457 0.000000 0.000004
v -1.641159 0.057453 0.000004
v -1.698616 0.196159 0.000004
v -1.698616 5.988150 10.792204
v -1.641159 5.988150 10.930912
v -1.502457 5.988150 10.988365
v 1.502457 5.988150 10.988365
v 1.641167 5.988150 10.930912
v 1.698616 5.988150 10.792204
v 1.698616 5.988150 0.000004
v 1.698616 5.988150 -10.792198
v 1.641167 5.988150 -10.930908
v 1.502457 5.988150 -10.988361
v -1.502457 5.988150 -10.988361
v -1.641159 5.988150 -10.930908
v -1.698616 5.988150 -10.792198
v -1.698616 5.988150 0.000004
v 0.000000 11.976297 0.000004
v 0.000000 11.976297 -10.792198
v 0.000000 11.918844 -10.930908
v 0.000000 11.780138 -10.988361
v 0.000000 5.988150 -10.988361
v 0.000000 0.196159 -10.988361
v 0.000000 0.057453 -10.930908
v 0.000000 0.000000 -10.792198
v 0.000000 0.000000 0.000004
v 0.000000 0.000000 10.792204
v 0.000000 0.057453 10.930912
v 0.000000 0.196159 10.988365
v 0.000000 5.988150 10.988365
v 0.000000 11.780138 10.988365
v 0.000000 11.918844 10.930912
v 0.000000 11.976297 10.792204
vt 0.142077 0.762659
vt 0.004015 0.143646
vt 0.143035 0.762659
vt 0.141609 0.005125
vt 0.143031 0.764259
vt 0.141618 0.006854
vt 0.005730 0.141930
vt 0.005732 0.143648
vt 0.313710 0.143780
vt 0.177326 0.762614
vt 0.311993 0.143780
vt 0.177953 0.006866
vt 0.176224 0.006868
vt 0.175705 0.764246
vt 0.176235 0.005139
vt 0.175694 0.762614
vt 0.139952 0.143672
vt 0.138237 0.143670
vt 0.139865 0.140271
vt 0.141600 0.140265
vt 0.141626 0.141976
vt 0.141666 0.143677
vt 0.177778 0.143688
vt 0.176064 0.143691
vt 0.176106 0.141990
vt 0.176136 0.140279
vt 0.179488 0.141964
vt 0.179493 0.143687
vt 0.138221 0.392307
vt 0.139981 0.393982
vt 0.138216 0.390582
vt 0.139931 0.390580
vt 0.141644 0.390576
vt 0.141656 0.392274
vt 0.141684 0.393980
vt 0.177541 0.393962
vt 0.179298 0.392310
vt 0.175839 0.393964
vt 0.175866 0.392267
vt 0.175877 0.390578
vt 0.177591 0.390583
vt 0.179306 0.390586
vt 0.003982 0.390554
vt 0.140807 0.528110
vt 0.005699 0.390552
vt 0.140532 0.524808
vt 0.005696 0.392270
vt 0.142228 0.524792
vt 0.142336 0.526451
vt 0.142441 0.528104
vt 0.177034 0.528007
vt 0.313530 0.390674
vt 0.175400 0.528011
vt 0.175498 0.526371
vt 0.175598 0.524724
vt 0.311815 0.392389
vt 0.177294 0.524735
vt 0.311813 0.390672
vt 0.141978 0.763748
vt 0.004280 0.142190
vt 0.313448 0.142325
vt 0.177077 0.763998
vt 0.140017 0.142065
vt 0.177713 0.142081
vt 0.140038 0.392204
vt 0.177478 0.392201
vt 0.004245 0.392004
vt 0.140931 0.526507
vt 0.176897 0.526422
vt 0.313266 0.392124
vt 0.138243 0.141947
vt 0.140149 0.005386
vt 0.139889 0.006851
vt 0.177871 0.140286
vt 0.311997 0.142063
vt 0.177695 0.005401
vt 0.138227 0.267126
vt 0.139941 0.267126
vt 0.141655 0.267127
vt 0.175971 0.267134
vt 0.177684 0.267135
vt 0.179399 0.267137
vt 0.311903 0.267226
vt 0.313620 0.267227
vt 0.177180 0.645310
vt 0.175547 0.645313
vt 0.142738 0.645381
vt 0.141442 0.645384
vt 0.003998 0.267100
vt 0.005716 0.267100
vt 0.071985 0.143659
vt 0.071987 0.141938
vt 0.139877 0.073561
vt 0.141609 0.073559
vt 0.176180 0.073573
vt 0.177912 0.073576
vt 0.245742 0.142013
vt 0.245743 0.143734
vt 0.245651 0.267181
vt 0.245559 0.390629
vt 0.177417 0.459349
vt 0.245556 0.392349
vt 0.175718 0.459344
vt 0.141956 0.459386
vt 0.071958 0.392288
vt 0.140256 0.459395
vt 0.071957 0.390567
vt 0.071971 0.267113
vt 0.158813 0.267130
vt 0.158761 0.390577
vt 0.158761 0.392271
vt 0.158761 0.393972
vt 0.158837 0.459365
vt 0.158913 0.524758
vt 0.158917 0.526411
vt 0.158920 0.528057
vt 0.159143 0.645347
vt 0.159365 0.762637
vt 0.158922 0.005132
vt 0.159368 0.764253
vt 0.158921 0.006861
vt 0.158894 0.073566
vt 0.158868 0.140272
vt 0.158866 0.141983
vt 0.158865 0.143684
vn -0.034986 -0.999388 0.000000
vn -0.707107 -0.707107 0.000000
vn -0.707102 -0.707103 -0.003525
vn -0.034842 -0.999380 -0.005101
vn -0.999953 -0.009688 0.000000
vn -0.999940 -0.009646 -0.005214
vn -0.034720 -0.009403 0.999353
vn -0.023937 -0.706908 0.706901
vn 0.000000 -0.707110 0.707103
vn 0.000000 -0.009687 0.999953
vn -0.034842 -0.999380 0.005101
vn 0.000000 -0.999986 0.005256
vn -0.999986 0.000000 0.005256
vn -0.707110 0.000000 0.707104
vn -0.707095 0.006516 0.707089
vn -0.999940 0.009646 0.005214
vn -0.034986 0.000000 0.999388
vn -0.034720 0.009403 0.999353
vn 0.999953 -0.009686 0.000000
vn 0.707107 -0.707107 0.000000
vn 0.707102 -0.707103 -0.003525
vn 0.999940 -0.009644 -0.005213
vn 0.034986 -0.999388 0.000000
vn 0.034842 -0.999380 -0.005101
vn 0.034986 0.000000 0.999388
vn 0.707110 0.000000 0.707104
vn 0.707095 0.006516 0.707089
vn 0.034720 0.009403 0.999353
vn 0.999986 0.000000 0.005256
vn 0.999940 0.009644 0.005213
vn -0.999953 0.009688 0.000000
vn -0.707107 0.707107 0.000000
vn -0.707102 0.707103 -0.003525
vn -0.999940 0.009646 -0.005214
vn -0.034986 0.999388 0.000000
vn -0.034842 0.999380 -0.005101
vn -0.034842 0.999380 0.005101
vn -0.023937 0.706907 0.706902
vn 0.000000 0.707110 0.707104
vn 0.000000 0.999986 0.005256
vn 0.000000 0.009687 0.999953
vn 0.034986 0.999388 0.000000
vn 0.707107 0.707107 0.000000
vn 0.707102 0.707103 -0.003525
vn 0.034842 0.999380 -0.005101
vn 0.999953 0.009686 0.000000
vn 0.999940 0.009644 -0.005213
vn -0.707099 0.006516 -0.707084
vn -0.707114 0.000000 -0.707099
vn -0.999986 0.000000 -0.005256
vn -0.034720 0.009403 -0.999353
vn -0.034986 0.000000 -0.999388
vn -0.023937 0.706910 -0.706898
vn 0.000000 0.707113 -0.707101
vn 0.000000 0.009687 -0.999953
vn 0.000000 0.999986 -0.005256
vn 0.034720 0.009403 -0.999353
vn 0.707099 0.006516 -0.707084
vn 0.707114 0.000000 -0.707099
vn 0.034986 0.000000 -0.999388
vn 0.999986 0.000000 -0.005256
vn -0.023938 -0.706911 -0.706897
vn 0.000000 -0.707114 -0.707100
vn 0.000000 -0.999986 -0.005256
vn -0.034720 -0.009403 -0.999353
vn 0.000000 -0.009687 -0.999953
vn 0.000000 0.000000 1.000000
vn 0.000000 1.000000 0.000000
vn 0.000000 0.000000 -1.000000
vn 0.000000 -1.000000 0.000000
vn 1.000000 0.000000 0.000000
vn -1.000000 0.000000 0.000000
vn -0.707096 -0.006516 0.707088
vn -0.999940 -0.009646 0.005214
vn -0.707102 -0.707102 0.003525
vn -0.577360 -0.577350 0.577340
vn 0.023937 -0.706908 0.706901
vn 0.034842 -0.999380 0.005101
vn 0.707102 -0.707102 0.003525
vn 0.577341 -0.577359 0.577350
vn 0.999940 -0.009644 0.005213
vn 0.707096 -0.006516 0.707088
vn 0.034720 -0.009403 0.999353
vn -0.707102 0.707102 0.003525
vn -0.577358 0.577353 0.577340
vn 0.707102 0.707102 0.003525
vn 0.577341 0.577361 0.577349
vn 0.034842 0.999380 0.005101
vn 0.023937 0.706907 0.706902
vn -0.577361 0.577354 -0.577336
vn 0.577343 0.577363 -0.577344
vn 0.023937 0.706910 -0.706898
vn -0.577362 -0.577352 -0.577336
vn -0.707098 -0.006516 -0.707086
vn 0.707098 -0.006516 -0.707085
vn 0.577345 -0.577361 -0.577345
vn 0.023938 -0.706911 -0.706897
vn 0.034720 -0.009403 -0.999353
vn -0.707107 0.707107 0.000000
vn -0.999953 0.009688 0.000000
vn -0.034986 0.999388 0.000000
vn 0.000000 1.000000 0.000000
vn 0.707107 0.707107 0.000000
vn 0.034986 0.999388 0.000000
vn 0.999953 0.009686 0.000000
vn 1.000000 0.000000 0.000000
vn 0.707107 -0.707107 0.000000
vn 0.999953 -0.009686 0.000000
vn 0.034986 -0.999388 0.000000
vn -0.034986 -0.999388 0.000000
vn 0.000000 -1.000000 0.000000
vn -0.707107 -0.707107 0.000000
vn -0.999953 -0.009688 0.000000
vn -1.000000 0.000000 0.000000
vn -0.707111 0.000000 0.707103
vn -0.999986 0.000000 0.005256
vn -0.034986 0.000000 0.999388
vn 0.000000 0.000000 1.000000
vn 0.707111 0.000000 0.707103
vn 0.034986 0.000000 0.999388
vn 0.999986 0.000000 0.005256
vn 1.000000 0.000000 0.000000
vn 0.999986 0.000000 -0.005256
vn 1.000000 0.000000 0.000000
vn 0.707113 0.000000 -0.707101
vn 0.034986 0.000000 -0.999388
vn -0.034986 0.000000 -0.999388
vn 0.000000 0.000000 -1.000000
vn -0.707113 0.000000 -0.707101
vn -0.999986 0.000000 -0.005256
vn -1.000000 0.000000 0.000000
vn -1.000000 0.000000 0.000000
vn 0.000000 1.000000 0.000000
vn 0.000000 0.999986 -0.005256
vn 0.000000 0.707113 -0.707101
vn 0.000000 0.009687 -0.999953
vn 0.000000 0.000000 -1.000000
vn 0.000000 -0.009687 -0.999953
vn 0.000000 0.000000 -1.000000
vn 0.000000 -0.707114 -0.707100
vn 0.000000 -0.999986 -0.005256
vn 0.000000 -1.000000 0.000000
vn 0.000000 -0.999986 0.005256
vn 0.000000 -1.000000 0.000000
vn 0.000000 -0.707110 0.707103
vn 0.000000 -0.009687 0.999953
vn 0.000000 0.000000 1.000000
vn 0.000000 0.009687 0.999953
vn 0.000000 0.000000 1.000000
vn 0.000000 0.707110 0.707104
vn 0.000000 0.999986 0.005256
vn 0.000000 1.000000 0.000000
s 1
g pCube83
usemtl StingrayPBS5SG
f 66/87/1 67/88/2 37/44/3 42/50/4
f 67/89/2 68/90/5 38/45/6 37/43/3
s 2
f 4/6/7 3/4/8 93/119/9 94/121/10
f 3/5/8 2/3/11 92/118/12 93/120/9
s 3
f 69/91/13 70/92/14 15/71/15 14/18/16
f 70/93/14 71/94/17 16/20/18 15/19/15
s 4
f 63/83/19 64/84/20 43/52/21 48/58/22
f 64/85/20 65/86/23 44/53/24 43/51/21
s 5
f 72/95/25 73/96/26 23/74/27 22/26/28
f 73/97/26 74/98/29 24/28/30 23/27/27
s 6
f 57/77/31 58/78/32 27/32/33 26/31/34
f 58/78/32 59/79/35 28/33/36 27/32/33
s 3
f 18/22/37 17/21/38 97/124/39 98/125/40
f 17/21/38 16/20/18 96/123/41 97/124/39
s 8
f 60/80/42 61/81/43 35/41/44 34/40/45
f 61/81/43 62/82/46 36/42/47 35/41/44
s 6
f 26/31/34 25/29/48 80/105/49 81/107/50
f 25/30/48 30/35/51 79/104/52 80/106/49
f 30/35/51 29/34/53 85/111/54 86/112/55
f 29/34/53 28/33/36 84/110/56 85/111/54
s 8
f 32/38/57 31/36/58 77/101/59 78/103/60
f 31/37/58 36/42/47 76/100/61 77/102/59
s 1
f 42/50/4 41/49/62 89/115/63 90/116/64
f 41/49/62 40/48/65 88/114/66 89/115/63
s 3
f 71/94/17 95/122/67 96/123/41 16/20/18
s 6
f 59/79/35 83/109/68 84/110/56 28/33/36
f 30/35/51 86/112/55 87/113/69 79/104/52
s 1
f 42/50/4 90/116/64 91/117/70 66/87/1
s 8
f 75/99/71 76/100/61 36/42/47 62/82/46
s 6
f 81/107/50 82/108/72 57/77/31 26/31/34
s 2
f 5/7/73 6/8/74 1/2/75 49/60/76
f 1/1/75 2/3/11 3/5/8 49/59/76
f 3/4/8 4/6/7 5/73/73 49/72/76
s 11
f 11/14/77 12/16/78 7/10/79 50/62/80
f 7/9/79 8/11/81 9/75/82 50/61/80
f 9/12/82 10/13/83 11/15/77 50/76/80
s 3
f 17/21/38 18/22/37 13/17/84 51/63/85
f 13/17/84 14/18/16 15/71/15 51/63/85
f 15/19/15 16/20/18 17/21/38 51/63/85
s 5
f 23/27/27 24/28/30 19/23/86 52/64/87
f 19/23/86 20/24/88 21/25/89 52/64/87
f 21/25/89 22/26/28 23/74/27 52/64/87
s 6
f 29/34/53 30/35/51 25/30/48 53/65/90
f 25/29/48 26/31/34 27/32/33 53/65/90
f 27/32/33 28/33/36 29/34/53 53/65/90
s 8
f 35/41/44 36/42/47 31/37/58 54/66/91
f 31/36/58 32/38/57 33/39/92 54/66/91
f 33/39/92 34/40/45 35/41/44 54/66/91
s 1
f 41/49/62 42/50/4 37/44/3 55/68/93
f 37/43/3 38/45/6 39/47/94 55/67/93
f 39/46/94 40/48/65 41/49/62 55/68/93
s 4
f 47/56/95 48/58/22 43/52/21 56/70/96
f 43/51/21 44/53/24 45/54/97 56/69/96
f 45/54/97 46/55/98 47/57/95 56/69/96
s 3
f 14/18/16 13/17/84 58/78/99 57/77/100
f 13/17/84 18/22/37 59/79/101 58/78/99
f 18/22/37 98/125/40 83/109/102 59/79/101
s 5
f 20/24/88 19/23/86 61/81/103 60/80/104
f 19/23/86 24/28/30 62/82/105 61/81/103
f 74/98/29 75/99/106 62/82/105 24/28/30
s 11
f 8/11/81 7/9/79 64/84/107 63/83/108
f 7/10/79 12/16/78 65/86/109 64/85/107
s 2
f 66/87/110 91/117/111 92/118/12 2/3/11
f 2/3/11 1/1/75 67/88/112 66/87/110
f 1/2/75 6/8/74 68/90/113 67/89/112
s 3
f 57/77/100 82/108/114 69/91/13 14/18/16
s 2
f 6/8/74 5/7/73 70/92/115 69/91/116
f 5/73/73 4/6/7 71/94/117 70/93/115
f 4/6/7 94/121/10 95/122/118 71/94/117
s 11
f 10/13/83 9/12/82 73/96/119 72/95/120
f 9/75/82 8/11/81 74/98/121 73/97/119
f 8/11/81 63/83/108 75/99/122 74/98/121
s 4
f 63/83/19 48/58/22 76/100/123 75/99/124
f 77/102/125 76/100/123 48/58/22 47/56/95
f 78/103/126 77/101/125 47/57/95 46/55/98
s 1
f 79/104/127 87/113/128 88/114/66 40/48/65
f 80/106/129 79/104/127 40/48/65 39/46/94
f 81/107/130 80/105/129 39/47/94 38/45/6
f 38/45/6 68/90/5 82/108/131 81/107/130
s 2
f 69/91/116 82/108/132 68/90/113 6/8/74
s 8
f 83/109/133 60/80/42 34/40/45 84/110/134
f 85/111/135 84/110/134 34/40/45 33/39/92
f 86/112/136 85/111/135 33/39/92 32/38/57
f 87/113/137 86/112/136 32/38/57 78/103/60
s 4
f 88/114/138 87/113/139 78/103/126 46/55/98
f 89/115/140 88/114/138 46/55/98 45/54/97
f 90/116/141 89/115/140 45/54/97 44/53/24
f 91/117/142 90/116/141 44/53/24 65/86/23
s 11
f 92/118/143 91/117/144 65/86/109 12/16/78
f 93/120/145 92/118/143 12/16/78 11/14/77
f 94/121/146 93/119/145 11/15/77 10/13/83
f 95/122/147 94/121/146 10/13/83 72/95/120
s 5
f 96/123/148 95/122/149 72/95/25 22/26/28
f 97/124/150 96/123/148 22/26/28 21/25/89
f 98/125/151 97/124/150 21/25/89 20/24/88
f 83/109/152 98/125/151 20/24/88 60/80/104
