# This file uses centimeters as units for non-parametric coordinates.

mtllib obj_011.mtl
g default
v -0.342987 -0.561918 19.421835
v -0.204269 -0.619371 19.421835
v -0.204269 -0.561918 19.560543
v -0.204269 -0.423210 19.617996
v -0.342987 -0.423210 19.560543
v -0.400436 -0.423210 19.421835
v 0.342987 -0.561918 19.421835
v 0.400436 -0.423210 19.421835
v 0.342987 -0.423210 19.560543
v 0.204269 -0.423210 19.617996
v 0.204269 -0.561918 19.560543
v 0.204269 -0.619371 19.421835
v -0.342987 0.561918 19.421835
v -0.400436 0.423210 19.421835
v -0.342987 0.423210 19.560543
v -0.204269 0.423210 19.617996
v -0.204269 0.561918 19.560543
v -0.204269 0.619371 19.421835
v 0.342987 0.561918 19.421835
v 0.204269 0.619371 19.421835
v 0.204269 0.561918 19.560543
v 0.204269 0.423210 19.617996
v 0.342987 0.423210 19.560543
v 0.400436 0.423210 19.421835
v -0.342987 0.423210 -19.560543
v -0.400436 0.423210 -19.421835
v -0.342987 0.561918 -19.421835
v -0.204269 0.619371 -19.421835
v -0.204269 0.561918 -19.560543
v -0.204269 0.423210 -19.617996
v 0.342987 0.423210 -19.560543
v 0.204269 0.423210 -19.617996
v 0.204269 0.561918 -19.560543
v 0.204269 0.619371 -19.421835
v 0.342987 0.561918 -19.421835
v 0.400436 0.423210 -19.421835
v -0.342987 -0.561918 -19.421835
v -0.400436 -0.423210 -19.421835
v -0.342987 -0.423210 -19.560543
v -0.204269 -0.423210 -19.617996
v -0.204269 -0.561918 -19.560543
v -0.204269 -0.619371 -19.421835
v 0.342987 -0.561918 -19.421835
v 0.204269 -0.619371 -19.421835
v 0.204269 -0.561918 -19.560543
v 0.204269 -0.423210 -19.617996
v 0.342987 -0.423210 -19.560543
v 0.400436 -0.423210 -19.421835
v -0.317490 -0.536427 19.535049
v 0.317490 -0.536427 19.535049
v -0.317490 0.536427 19.535049
v 0.317490 0.536427 19.535049
v -0.317490 0.536427 -19.535049
v 0.317490 0.536427 -19.535049
v -0.317490 -0.536427 -19.535049
v 0.317490 -0.536427 -19.535049
v 0.400436 0.423210 -9.710917
v 0.342987 0.561918 -9.710917
v 0.204269 0.619371 -9.710917
v -0.204269 0.619371 -9.710917
v -0.342987 0.561918 -9.710917
v -0.400436 0.423210 -9.710917
v -0.400436 -0.423210 -9.710917
v -0.342987 -0.561918 -9.710917
v -0.204269 -0.619371 -9.710917
v 0.204269 -0.619371 -9.710917
v 0.342987 -0.561918 -9.710917
v 0.400436 -0.423210 -9.710917
v 0.400436 0.423210 0.000001
v 0.342987 0.561918 0.000001
v 0.204269 0.619371 0.000001
v -0.204269 0.619371 0.000001
v -0.342987 0.561918 0.000001
v -0.400436 0.423210 0.000001
v -0.400436 -0.423210 0.000001
v -0.342987 -0.561918 0.000001
v -0.204269 -0.619371 0.000001
v 0.204269 -0.619371 0.000001
v 0.342987 -0.561918 0.000001
v 0.400436 -0.423210 0.000001
v 0.400436 0.423210 9.710918
v 0.342987 0.561918 9.710918
v 0.204269 0.619371 9.710918
v -0.204269 0.619371 9.710918
v -0.342987 0.561918 9.710918
v -0.400436 0.423210 9.710918
v -0.400436 -0.423210 9.710918
v -0.342987 -0.561918 9.710918
v -0.204269 -0.619371 9.710918
v 0.204269 -0.619371 9.710918
v 0.342987 -0.561918 9.710918
v 0.400436 -0.423210 9.710918
vt 0.836782 0.553574
vt 0.779515 0.381887
vt 0.837002 0.553574
vt 0.837189 0.324253
vt 0.837001 0.553794
vt 0.837189 0.324473
vt 0.779735 0.381667
vt 0.779735 0.381887
vt 0.908474 0.381840
vt 0.850969 0.553588
vt 0.908254 0.381840
vt 0.851156 0.324490
vt 0.850935 0.324490
vt 0.850749 0.553808
vt 0.850936 0.324270
vt 0.850749 0.553588
vt 0.836907 0.381862
vt 0.836687 0.381862
vt 0.836904 0.381425
vt 0.837124 0.381425
vt 0.837125 0.381644
vt 0.837127 0.381863
vt 0.851090 0.381869
vt 0.850871 0.381870
vt 0.850873 0.381652
vt 0.850874 0.381433
vt 0.851309 0.381649
vt 0.851310 0.381869
vt 0.836707 0.439027
vt 0.836923 0.439242
vt 0.836707 0.438807
vt 0.836926 0.438806
vt 0.837146 0.438806
vt 0.837144 0.439024
vt 0.837143 0.439242
vt 0.851112 0.439253
vt 0.851329 0.439036
vt 0.850892 0.439253
vt 0.850892 0.439034
vt 0.850890 0.438815
vt 0.851110 0.438816
vt 0.851330 0.438816
vt 0.779544 0.438837
vt 0.836845 0.496624
vt 0.779764 0.438837
vt 0.836846 0.496186
vt 0.779764 0.439057
vt 0.837066 0.496186
vt 0.837066 0.496405
vt 0.837065 0.496624
vt 0.851031 0.496643
vt 0.908501 0.438790
vt 0.850811 0.496643
vt 0.850811 0.496424
vt 0.850812 0.496205
vt 0.908281 0.439011
vt 0.851032 0.496206
vt 0.908281 0.438790
vt 0.836820 0.553756
vt 0.779553 0.381705
vt 0.908435 0.381658
vt 0.850931 0.553770
vt 0.836919 0.381656
vt 0.851079 0.381664
vt 0.836938 0.439012
vt 0.851098 0.439022
vt 0.779582 0.439019
vt 0.836883 0.496405
vt 0.850994 0.496424
vt 0.908463 0.438972
vt 0.836688 0.381642
vt 0.837007 0.324291
vt 0.836969 0.324472
vt 0.851094 0.381434
vt 0.908254 0.381620
vt 0.851118 0.324308
vt 0.851325 0.424579
vt 0.851105 0.424579
vt 0.850885 0.424579
vt 0.837141 0.424570
vt 0.836921 0.424570
vt 0.836702 0.424570
vt 0.779757 0.424600
vt 0.836829 0.510861
vt 0.779536 0.424600
vt 0.837049 0.510862
vt 0.850796 0.510879
vt 0.908494 0.424553
vt 0.851016 0.510879
vt 0.908274 0.424553
vt 0.851320 0.410342
vt 0.851100 0.410342
vt 0.850880 0.410343
vt 0.837136 0.410334
vt 0.836917 0.410334
vt 0.836697 0.410334
vt 0.779749 0.410362
vt 0.836814 0.525099
vt 0.779529 0.410362
vt 0.837034 0.525099
vt 0.850780 0.525115
vt 0.908487 0.410315
vt 0.851000 0.525115
vt 0.908267 0.410315
vt 0.851315 0.396106
vt 0.851095 0.396106
vt 0.850875 0.396106
vt 0.837132 0.396098
vt 0.836912 0.396098
vt 0.836692 0.396098
vt 0.779742 0.396125
vt 0.836798 0.539337
vt 0.779522 0.396125
vt 0.837018 0.539337
vt 0.850764 0.539352
vt 0.908481 0.396078
vt 0.850984 0.539352
vt 0.908260 0.396078
vn -0.104001 -0.994563 0.005298
vn -0.707091 -0.707112 0.003914
vn -0.707097 -0.707117 0.000000
vn -0.104410 -0.994534 0.000000
vn -0.998303 -0.057964 0.005542
vn -0.998304 -0.058218 0.000000
vn -0.100160 -0.053362 0.993540
vn -0.075109 -0.705109 0.705110
vn 0.075109 -0.705109 0.705110
vn 0.100160 -0.053362 0.993539
vn 0.104001 -0.994563 0.005298
vn -0.706516 -0.040487 0.706538
vn -0.706517 0.040487 0.706537
vn -0.998303 0.057964 0.005542
vn -0.100160 0.053362 0.993539
vn 0.998303 -0.057964 0.005542
vn 0.707091 -0.707112 0.003914
vn 0.707097 -0.707117 0.000000
vn 0.998304 -0.058218 0.000000
vn 0.104410 -0.994534 0.000000
vn 0.706517 -0.040487 0.706537
vn 0.706516 0.040487 0.706538
vn 0.100160 0.053362 0.993540
vn 0.998303 0.057964 0.005542
vn -0.707091 0.707112 0.003914
vn -0.707097 0.707117 0.000000
vn -0.998304 0.058218 0.000000
vn -0.104001 0.994563 0.005298
vn -0.104410 0.994534 0.000000
vn -0.075109 0.705109 0.705110
vn 0.075109 0.705109 0.705110
vn 0.104001 0.994563 0.005298
vn 0.707091 0.707112 0.003914
vn 0.707097 0.707117 0.000000
vn 0.104410 0.994534 0.000000
vn 0.998304 0.058218 0.000000
vn -0.998303 0.057964 -0.005542
vn -0.706516 0.040487 -0.706538
vn -0.706517 -0.040487 -0.706537
vn -0.998303 -0.057964 -0.005542
vn -0.100160 0.053362 -0.993540
vn -0.100160 -0.053362 -0.993539
vn -0.075109 0.705109 -0.705110
vn 0.075109 0.705109 -0.705110
vn 0.100160 0.053362 -0.993539
vn -0.104001 0.994563 -0.005298
vn 0.104001 0.994563 -0.005298
vn 0.706517 0.040487 -0.706537
vn 0.706516 -0.040487 -0.706538
vn 0.100160 -0.053362 -0.993540
vn 0.998303 0.057964 -0.005542
vn 0.998303 -0.057964 -0.005542
vn -0.104001 -0.994563 -0.005298
vn -0.075109 -0.705109 -0.705110
vn 0.075109 -0.705109 -0.705110
vn 0.104001 -0.994563 -0.005298
vn -0.577327 -0.577363 0.577360
vn 0.577328 -0.577363 0.577359
vn -0.577328 0.577363 0.577359
vn 0.577327 0.577363 0.577360
vn -0.577327 0.577363 -0.577360
vn -0.707091 0.707112 -0.003914
vn 0.707091 0.707112 -0.003914
vn 0.577328 0.577363 -0.577359
vn -0.707091 -0.707112 -0.003914
vn -0.577328 -0.577363 -0.577359
vn 0.707091 -0.707112 -0.003914
vn 0.577327 -0.577363 -0.577360
vn 0.707097 0.707117 0.000000
vn 0.998304 0.058218 0.000000
vn 0.104410 0.994534 0.000000
vn -0.104410 0.994534 0.000000
vn -0.707097 0.707117 0.000000
vn -0.998304 0.058218 0.000000
vn -0.998304 -0.058218 0.000000
vn -0.707097 -0.707117 0.000000
vn -0.104410 -0.994534 0.000000
vn 0.104410 -0.994534 0.000000
vn 0.707097 -0.707117 0.000000
vn 0.998304 -0.058218 0.000000
vn 0.707097 0.707117 0.000000
vn 0.998304 0.058218 0.000000
vn 0.998304 0.058218 0.000000
vn 0.707097 0.707117 0.000000
vn 0.104410 0.994534 0.000000
vn 0.104410 0.994534 0.000000
vn -0.104410 0.994534 0.000000
vn -0.104410 0.994534 0.000000
vn -0.707097 0.707117 0.000000
vn -0.707097 0.707117 0.000000
vn -0.998304 0.058218 0.000000
vn -0.998304 0.058218 0.000000
vn -0.998304 -0.058218 0.000000
vn -0.998304 -0.058218 0.000000
vn -0.707097 -0.707117 0.000000
vn -0.707097 -0.707117 0.000000
vn -0.104410 -0.994534 0.000000
vn -0.104410 -0.994534 0.000000
vn 0.104410 -0.994534 0.000000
vn 0.104410 -0.994534 0.000000
vn 0.707097 -0.707117 0.000000
vn 0.707097 -0.707117 0.000000
vn 0.998304 -0.058218 0.000000
vn 0.998304 -0.058218 0.000000
vn 0.707097 0.707117 0.000000
vn 0.998304 0.058218 0.000000
vn 0.998304 0.058218 0.000000
vn 0.707097 0.707117 0.000000
vn 0.104410 0.994534 0.000000
vn 0.104410 0.994534 0.000000
vn -0.104410 0.994534 0.000000
vn -0.104410 0.994534 0.000000
vn -0.707097 0.707117 0.000000
vn -0.707097 0.707117 0.000000
vn -0.998304 0.058218 0.000000
vn -0.998304 0.058218 0.000000
vn -0.998304 -0.058218 0.000000
vn -0.998304 -0.058218 0.000000
vn -0.707097 -0.707117 0.000000
vn -0.707097 -0.707117 0.000000
vn -0.104410 -0.994534 0.000000
vn -0.104410 -0.994534 0.000000
vn 0.104410 -0.994534 0.000000
vn 0.104410 -0.994534 0.000000
vn 0.707097 -0.707117 0.000000
vn 0.707097 -0.707117 0.000000
vn 0.998304 -0.058218 0.000000
vn 0.998304 -0.058218 0.000000
s 1
g pCube84
usemtl StingrayPBS6SG
f 2/3/1 1/1/2 88/112/3 89/114/4
f 1/2/2 6/8/5 87/111/6 88/113/3
f 4/6/7 3/4/8 11/15/9 10/13/10
f 3/5/8 2/3/1 12/16/11 11/14/9
f 6/8/5 5/7/12 15/71/13 14/18/14
f 5/73/12 4/6/7 16/20/15 15/19/13
f 8/11/16 7/9/17 91/116/18 92/118/19
f 7/10/17 12/16/11 90/115/20 91/117/18
f 10/13/10 9/12/21 23/74/22 22/26/23
f 9/75/21 8/11/16 24/28/24 23/27/22
f 14/18/14 13/17/25 85/109/26 86/110/27
f 13/17/25 18/22/28 84/108/29 85/109/26
f 18/22/28 17/21/30 21/25/31 20/24/32
f 17/21/30 16/20/15 22/26/23 21/25/31
f 20/24/32 19/23/33 82/106/34 83/107/35
f 19/23/33 24/28/24 81/105/36 82/106/34
s 4
f 26/31/37 25/29/38 39/47/39 38/45/40
f 25/30/38 30/35/41 40/48/42 39/46/39
f 30/35/41 29/34/43 33/39/44 32/38/45
f 29/34/43 28/33/46 34/40/47 33/39/44
f 32/38/45 31/36/48 47/57/49 46/55/50
f 31/37/48 36/42/51 48/58/52 47/56/49
f 42/50/53 41/49/54 45/54/55 44/53/56
f 41/49/54 40/48/42 46/55/50 45/54/55
s 1
f 4/6/7 10/13/10 22/26/23 16/20/15
f 18/22/28 20/24/32 83/107/35 84/108/29
s 4
f 30/35/41 32/38/45 46/55/50 40/48/42
s 1
f 89/114/4 90/115/20 12/16/11 2/3/1
f 8/11/16 92/118/19 81/105/36 24/28/24
f 87/111/6 6/8/5 14/18/14 86/110/27
f 5/7/12 6/8/5 1/2/2 49/60/57
f 1/1/2 2/3/1 3/5/8 49/59/57
f 3/4/8 4/6/7 5/73/12 49/72/57
f 11/14/9 12/16/11 7/10/17 50/62/58
f 7/9/17 8/11/16 9/75/21 50/61/58
f 9/12/21 10/13/10 11/15/9 50/76/58
f 17/21/30 18/22/28 13/17/25 51/63/59
f 13/17/25 14/18/14 15/71/13 51/63/59
f 15/19/13 16/20/15 17/21/30 51/63/59
f 23/27/22 24/28/24 19/23/33 52/64/60
f 19/23/33 20/24/32 21/25/31 52/64/60
f 21/25/31 22/26/23 23/74/22 52/64/60
s 4
f 29/34/43 30/35/41 25/30/38 53/65/61
f 25/29/38 26/31/37 27/32/62 53/65/61
f 27/32/62 28/33/46 29/34/43 53/65/61
f 35/41/63 36/42/51 31/37/48 54/66/64
f 31/36/48 32/38/45 33/39/44 54/66/64
f 33/39/44 34/40/47 35/41/63 54/66/64
f 41/49/54 42/50/53 37/44/65 55/68/66
f 37/43/65 38/45/40 39/47/39 55/67/66
f 39/46/39 40/48/42 41/49/54 55/68/66
f 47/56/49 48/58/52 43/52/67 56/70/68
f 43/51/67 44/53/56 45/54/55 56/69/68
f 45/54/55 46/55/50 47/57/49 56/69/68
f 58/78/69 57/77/70 36/42/51 35/41/63
f 59/79/71 58/78/69 35/41/63 34/40/47
f 60/80/72 59/79/71 34/40/47 28/33/46
f 61/81/73 60/80/72 28/33/46 27/32/62
f 62/82/74 61/81/73 27/32/62 26/31/37
f 38/45/40 63/83/75 62/82/74 26/31/37
f 64/85/76 63/83/75 38/45/40 37/43/65
f 65/86/77 64/84/76 37/44/65 42/50/53
f 42/50/53 44/53/56 66/87/78 65/86/77
f 67/89/79 66/87/78 44/53/56 43/51/67
f 68/90/80 67/88/79 43/52/67 48/58/52
f 57/77/70 68/90/80 48/58/52 36/42/51
s 6
f 70/92/81 69/91/82 57/77/83 58/78/84
f 71/93/85 70/92/81 58/78/84 59/79/86
f 72/94/87 71/93/85 59/79/86 60/80/88
f 73/95/89 72/94/87 60/80/88 61/81/90
f 74/96/91 73/95/89 61/81/90 62/82/92
f 63/83/93 75/97/94 74/96/91 62/82/92
f 76/99/95 75/97/94 63/83/93 64/85/96
f 77/100/97 76/98/95 64/84/96 65/86/98
f 65/86/98 66/87/99 78/101/100 77/100/97
f 79/103/101 78/101/100 66/87/99 67/89/102
f 80/104/103 79/102/101 67/88/102 68/90/104
f 69/91/82 80/104/103 68/90/104 57/77/83
s 7
f 82/106/105 81/105/106 69/91/107 70/92/108
f 83/107/109 82/106/105 70/92/108 71/93/110
f 84/108/111 83/107/109 71/93/110 72/94/112
f 85/109/113 84/108/111 72/94/112 73/95/114
f 86/110/115 85/109/113 73/95/114 74/96/116
f 75/97/117 87/111/118 86/110/115 74/96/116
f 88/113/119 87/111/118 75/97/117 76/99/120
f 89/114/121 88/112/119 76/98/120 77/100/122
f 77/100/122 78/101/123 90/115/124 89/114/121
f 91/117/125 90/115/124 78/101/123 79/103/126
f 92/118/127 91/116/125 79/102/126 80/104/128
f 81/105/106 92/118/127 80/104/128 69/91/107
